<?xml version="1.0" standalone="no"?>
<!DOCTYPE svg PUBLIC "-//W3C//DTD SVG 20010904//EN"
 "http://www.w3.org/TR/2001/REC-SVG-20010904/DTD/svg10.dtd">
<svg version="1.0" xmlns="http://www.w3.org/2000/svg"
 width="200.000000pt" height="89.000000pt" viewBox="0 0 200.000000 89.000000"
 preserveAspectRatio="xMidYMid meet">

<g transform="translate(0.000000,89.000000) scale(0.100000,-0.100000)"
fill="#000000" stroke="none">
<path d="M1148 713 l-27 -4 2 -224 2 -224 52 -7 c123 -15 193 47 193 171 0
117 -68 169 -140 108 l-32 -27 4 107 c4 116 8 109 -54 100z m140 -255 c18 -18
15 -98 -5 -120 -9 -10 -30 -18 -50 -18 l-33 0 0 68 c0 38 3 72 7 75 11 12 68
8 81 -5z"/>
<path d="M392 688 c-17 -17 -15 -77 3 -84 8 -4 26 -3 40 0 28 7 44 50 28 75
-13 20 -54 26 -71 9z"/>
<path d="M164 526 c-59 -59 -39 -118 56 -161 26 -12 40 -24 38 -34 -5 -24 -35
-25 -69 0 l-31 22 -26 -27 -27 -27 28 -25 c40 -34 114 -34 155 1 62 52 49 121
-29 160 -54 28 -66 42 -50 58 8 8 20 6 46 -6 20 -9 37 -17 38 -17 1 0 11 16
22 36 24 44 13 54 -63 54 -48 0 -58 -4 -88 -34z"/>
<path d="M408 553 l-28 -4 0 -151 c0 -133 2 -149 16 -144 9 3 27 6 40 6 l24 0
0 150 c0 114 -3 150 -12 149 -7 -1 -25 -4 -40 -6z"/>
<path d="M545 553 c-19 -4 -20 -11 -20 -153 l0 -150 35 6 c19 4 37 9 40 11 3
3 3 44 2 93 -4 80 -2 89 16 99 12 6 30 11 41 11 34 0 43 -33 35 -132 l-7 -91
33 6 c18 4 36 7 41 7 5 0 9 58 9 129 0 128 0 130 -26 150 -34 27 -49 26 -101
-3 l-41 -24 -6 24 c-6 24 -11 25 -51 17z"/>
<path d="M872 540 c-38 -17 -43 -23 -36 -42 9 -32 9 -32 45 -19 44 15 65 14
83 -5 29 -28 20 -44 -24 -44 -74 0 -120 -37 -120 -97 0 -69 75 -105 132 -63
30 22 39 20 50 -13 2 -4 18 -2 36 4 28 10 32 15 26 33 -4 11 -10 67 -13 122
-7 124 -20 144 -90 144 -25 0 -65 -9 -89 -20z m106 -182 c-4 -31 -52 -48 -74
-27 -25 26 -7 49 38 49 35 0 39 -2 36 -22z"/>
<path d="M1440 551 c-15 -5 -23 -14 -21 -22 2 -8 4 -74 4 -147 0 -112 2 -132
14 -128 8 3 26 6 39 6 23 0 24 2 24 84 0 76 2 86 22 100 12 9 32 16 44 16 12
0 25 7 28 16 8 20 8 84 1 84 -17 0 -66 -33 -75 -50 -14 -27 -30 -16 -30 21 0
30 -6 33 -50 20z"/>
<path d="M1681 535 c-42 -36 -65 -101 -59 -171 4 -49 10 -62 37 -86 25 -22 41
-28 77 -28 54 0 89 21 113 69 41 81 37 161 -9 211 -24 26 -35 30 -78 30 -39 0
-57 -6 -81 -25z m116 -97 c19 -58 -1 -112 -43 -116 -38 -4 -54 14 -61 67 -8
57 17 93 60 89 27 -3 34 -9 44 -40z"/>
</g>
</svg>
